<svg xmlns="http://www.w3.org/2000/svg" width="206.9" height="25.37" viewBox="0 0 206.9 25.37"><path d="M12.6,5.69a7.4,7.4,0,0,1,3.1,2.94,8.76,8.76,0,0,1,1.09,4.43,8.64,8.64,0,0,1-1.09,4.41,7.45,7.45,0,0,1-3.1,2.91,10,10,0,0,1-4.64,1H2.1V4.66H8A10.07,10.07,0,0,1,12.6,5.69Zm-.68,11.43a5.48,5.48,0,0,0,1.44-4.06A5.61,5.61,0,0,0,11.92,9,5.46,5.46,0,0,0,7.84,7.49H5.46V18.56H7.84A5.52,5.52,0,0,0,11.92,17.12Z" transform="translate(-2.1 -2.6)" fill="#f7542e"/><path d="M31.58,15.77H21.86a3.31,3.31,0,0,0,1,2.26,3.15,3.15,0,0,0,2.19.82,2.74,2.74,0,0,0,2.66-1.61h3.63a6.05,6.05,0,0,1-2.21,3.15,6.43,6.43,0,0,1-4,1.24,6.88,6.88,0,0,1-3.44-.85,6,6,0,0,1-2.38-2.41,7.37,7.37,0,0,1-.85-3.6,7.54,7.54,0,0,1,.84-3.63,5.84,5.84,0,0,1,2.35-2.4,7.06,7.06,0,0,1,3.48-.84,7,7,0,0,1,3.4.82A5.67,5.67,0,0,1,30.84,11a6.94,6.94,0,0,1,.83,3.45A8.33,8.33,0,0,1,31.58,15.77Zm-3.39-2.25a2.67,2.67,0,0,0-.93-2.08A3.34,3.34,0,0,0,25,10.66a3,3,0,0,0-2.1.76,3.35,3.35,0,0,0-1,2.1Z" transform="translate(-2.1 -2.6)" fill="#f7542e"/><path d="M39.66,18.32,43,8.12H46.6L41.68,21.41H37.6L32.7,8.12h3.6Z" transform="translate(-2.1 -2.6)" fill="#f7542e"/><path d="M48.47,11.15a6,6,0,0,1,2.33-2.4,6.82,6.82,0,0,1,3.41-.85A6.51,6.51,0,0,1,58.3,9.14a6,6,0,0,1,2.17,3.47H56.85a2.67,2.67,0,0,0-1-1.36,2.82,2.82,0,0,0-1.7-.49,2.78,2.78,0,0,0-2.28,1,4.65,4.65,0,0,0-.84,3,4.59,4.59,0,0,0,.84,2.94,2.78,2.78,0,0,0,2.28,1,2.56,2.56,0,0,0,2.67-1.82h3.62a6.13,6.13,0,0,1-2.18,3.43,6.43,6.43,0,0,1-4.08,1.27,6.72,6.72,0,0,1-3.41-.85,6,6,0,0,1-2.33-2.4,7.46,7.46,0,0,1-.84-3.61A7.5,7.5,0,0,1,48.47,11.15Z" transform="translate(-2.1 -2.6)" fill="#090f31"/><path d="M73.12,8.59A4.55,4.55,0,0,1,75,10.53a6.67,6.67,0,0,1,.66,3.08v7.8H72.26V14.07a3.45,3.45,0,0,0-.8-2.44,2.81,2.81,0,0,0-2.16-.85,2.89,2.89,0,0,0-2.19.85,3.41,3.41,0,0,0-.81,2.44v7.34H62.94V3.65H66.3V9.77A4.51,4.51,0,0,1,68,8.42a5.69,5.69,0,0,1,2.4-.49A5.39,5.39,0,0,1,73.12,8.59Z" transform="translate(-2.1 -2.6)" fill="#090f31"/><path d="M78.75,11.14A5.75,5.75,0,0,1,84,7.9,5.34,5.34,0,0,1,88.41,10V8.12h3.38V21.41H88.41V19.47A5.05,5.05,0,0,1,86.62,21a5.46,5.46,0,0,1-2.63.61,5.7,5.7,0,0,1-3.06-.86,6,6,0,0,1-2.18-2.44,7.77,7.77,0,0,1-.81-3.61A7.65,7.65,0,0,1,78.75,11.14Zm9.18,1.53a3.32,3.32,0,0,0-1.3-1.35,3.49,3.49,0,0,0-3.48,0,3.42,3.42,0,0,0-1.28,1.33,4.18,4.18,0,0,0-.49,2.08,4.29,4.29,0,0,0,.49,2.1,3.59,3.59,0,0,0,1.29,1.38,3.31,3.31,0,0,0,1.72.48,3.48,3.48,0,0,0,1.75-.47,3.36,3.36,0,0,0,1.3-1.34,4.34,4.34,0,0,0,.48-2.1A4.29,4.29,0,0,0,87.93,12.67Z" transform="translate(-2.1 -2.6)" fill="#090f31"/><path d="M98.44,3.65V21.41H95.08V3.65Z" transform="translate(-2.1 -2.6)" fill="#090f31"/><path d="M105.11,3.65V21.41h-3.36V3.65Z" transform="translate(-2.1 -2.6)" fill="#090f31"/><path d="M120.69,15.77H111A3.27,3.27,0,0,0,112,18a3.12,3.12,0,0,0,2.18.82,2.73,2.73,0,0,0,2.66-1.61h3.63a6.05,6.05,0,0,1-2.21,3.15,6.41,6.41,0,0,1-4,1.24,6.88,6.88,0,0,1-3.44-.85,6,6,0,0,1-2.38-2.41,7.37,7.37,0,0,1-.85-3.6,7.54,7.54,0,0,1,.84-3.63,5.84,5.84,0,0,1,2.35-2.4,7.06,7.06,0,0,1,3.48-.84,6.93,6.93,0,0,1,3.4.82A5.76,5.76,0,0,1,120,11a7,7,0,0,1,.82,3.45A8.33,8.33,0,0,1,120.69,15.77Zm-3.39-2.25a2.63,2.63,0,0,0-.93-2.08,3.31,3.31,0,0,0-2.23-.78,3,3,0,0,0-2.1.76,3.31,3.31,0,0,0-1.05,2.1Z" transform="translate(-2.1 -2.6)" fill="#090f31"/><path d="M134.44,9.43a5.71,5.71,0,0,1,1.46,4.18v7.8h-3.36V14.07a3.45,3.45,0,0,0-.79-2.44,2.84,2.84,0,0,0-2.16-.85,2.88,2.88,0,0,0-2.19.85,3.41,3.41,0,0,0-.81,2.44v7.34h-3.36V8.12h3.36V9.77a4.71,4.71,0,0,1,1.72-1.35,5.26,5.26,0,0,1,2.29-.49A5.14,5.14,0,0,1,134.44,9.43Z" transform="translate(-2.1 -2.6)" fill="#090f31"/><path d="M146.92,8.49A4.81,4.81,0,0,1,148.69,10V8.12h3.39V21.51a7.1,7.1,0,0,1-.75,3.3,5.43,5.43,0,0,1-2.23,2.3,7.11,7.11,0,0,1-3.6.86,7.68,7.68,0,0,1-4.64-1.32,4.88,4.88,0,0,1-2.05-3.6h3.33a2.54,2.54,0,0,0,1.14,1.45,4,4,0,0,0,2.13.54,3.26,3.26,0,0,0,2.37-.88,3.5,3.5,0,0,0,.91-2.65V19.45A5.14,5.14,0,0,1,146.91,21a5.41,5.41,0,0,1-2.61.62,5.76,5.76,0,0,1-3.07-.86A6,6,0,0,1,139,18.33a7.77,7.77,0,0,1-.81-3.61,7.65,7.65,0,0,1,.81-3.58A5.75,5.75,0,0,1,144.3,7.9,5.62,5.62,0,0,1,146.92,8.49Zm1.29,4.18a3.36,3.36,0,0,0-1.29-1.35,3.48,3.48,0,0,0-1.75-.47,3.41,3.41,0,0,0-3,1.79,4.29,4.29,0,0,0-.49,2.08,4.4,4.4,0,0,0,.49,2.1,3.54,3.54,0,0,0,1.3,1.38,3.31,3.31,0,0,0,1.72.48,3.48,3.48,0,0,0,1.75-.47,3.4,3.4,0,0,0,1.29-1.34,4.34,4.34,0,0,0,.48-2.1A4.29,4.29,0,0,0,148.21,12.67Z" transform="translate(-2.1 -2.6)" fill="#090f31"/><path d="M167.63,15.77h-9.72a3.32,3.32,0,0,0,1,2.26,3.12,3.12,0,0,0,2.18.82,2.76,2.76,0,0,0,2.67-1.61h3.62a6,6,0,0,1-2.21,3.15,6.41,6.41,0,0,1-4,1.24,6.91,6.91,0,0,1-3.44-.85,6,6,0,0,1-2.38-2.41,7.48,7.48,0,0,1-.85-3.6,7.54,7.54,0,0,1,.84-3.63,5.91,5.91,0,0,1,2.35-2.4,7.06,7.06,0,0,1,3.48-.84,6.93,6.93,0,0,1,3.4.82A5.7,5.7,0,0,1,166.9,11a7,7,0,0,1,.83,3.45A8.25,8.25,0,0,1,167.63,15.77Zm-3.38-2.25a2.67,2.67,0,0,0-.94-2.08,3.31,3.31,0,0,0-2.23-.78,3,3,0,0,0-2.1.76,3.25,3.25,0,0,0-1,2.1Z" transform="translate(-2.1 -2.6)" fill="#090f31"/><path d="M172.33,21a5.23,5.23,0,0,1-2.05-1.59,4.13,4.13,0,0,1-.83-2.24h3.39a1.83,1.83,0,0,0,.75,1.28,2.68,2.68,0,0,0,1.65.5,2.6,2.6,0,0,0,1.5-.38,1.18,1.18,0,0,0,.54-1,1,1,0,0,0-.66-1,12.39,12.39,0,0,0-2.1-.71,18.83,18.83,0,0,1-2.44-.74A4.3,4.3,0,0,1,170.45,14a3.13,3.13,0,0,1-.68-2.13,3.48,3.48,0,0,1,.63-2,4.25,4.25,0,0,1,1.83-1.44A6.84,6.84,0,0,1,175,7.9a5.7,5.7,0,0,1,3.79,1.19,4.35,4.35,0,0,1,1.56,3.2h-3.21A1.79,1.79,0,0,0,176.5,11a2.46,2.46,0,0,0-1.57-.46,2.53,2.53,0,0,0-1.41.33,1.08,1.08,0,0,0-.49.94,1.09,1.09,0,0,0,.67,1,10.72,10.72,0,0,0,2.09.71,17.56,17.56,0,0,1,2.38.74,4.26,4.26,0,0,1,1.62,1.19,3.24,3.24,0,0,1,.7,2.12,3.56,3.56,0,0,1-.63,2.07A4.21,4.21,0,0,1,178,21.11a6.78,6.78,0,0,1-2.77.52A7.07,7.07,0,0,1,172.33,21Z" transform="translate(-2.1 -2.6)" fill="#090f31"/><path d="M183.24,21a1.89,1.89,0,0,1-.59-1.41,1.87,1.87,0,0,1,.59-1.4,2.05,2.05,0,0,1,1.5-.56,2,2,0,0,1,1.47.56,1.89,1.89,0,0,1,.57,1.4,1.92,1.92,0,0,1-.57,1.41,2.06,2.06,0,0,1-1.47.56A2.09,2.09,0,0,1,183.24,21Z" transform="translate(-2.1 -2.6)" fill="#090f31"/><path d="M189.72,6a1.87,1.87,0,0,1-.59-1.4,1.89,1.89,0,0,1,.59-1.41,2.08,2.08,0,0,1,1.48-.56,2.06,2.06,0,0,1,1.47.56,1.86,1.86,0,0,1,.59,1.41,1.84,1.84,0,0,1-.59,1.4,2,2,0,0,1-1.47.56A2,2,0,0,1,189.72,6Zm3.13,2.15V21.41h-3.36V8.12Z" transform="translate(-2.1 -2.6)" fill="#090f31"/><path d="M198.61,20.78a6.2,6.2,0,0,1-2.41-2.41,7.27,7.27,0,0,1-.87-3.6,7.07,7.07,0,0,1,.9-3.6,6.29,6.29,0,0,1,2.46-2.42,7.55,7.55,0,0,1,7,0,6.29,6.29,0,0,1,2.46,2.42,7.07,7.07,0,0,1,.9,3.6,6.89,6.89,0,0,1-.93,3.6,6.41,6.41,0,0,1-2.49,2.41,7.24,7.24,0,0,1-3.52.85A7,7,0,0,1,198.61,20.78Zm5.18-2.52a3.29,3.29,0,0,0,1.28-1.33,4.53,4.53,0,0,0,.48-2.16,4,4,0,0,0-1-2.92,3.25,3.25,0,0,0-2.43-1,3.18,3.18,0,0,0-2.41,1,4.06,4.06,0,0,0-1,2.92,4.13,4.13,0,0,0,1,2.91,3.12,3.12,0,0,0,2.39,1A3.58,3.58,0,0,0,203.79,18.26Z" transform="translate(-2.1 -2.6)" fill="#090f31"/></svg>